<svg version="1.1" class="clearos-svg clearfoundation app-vendor-clearfoundation app-free app-category-reports app-sub-category-performance-and-resources" viewBox="0 0 400 400" preserveAspectRatio="xMinYMin" xmlns="http://www.w3.org/2000/svg" xmlns:xlink= "http://www.w3.org/1999/xlink">
<path fill="#AA0707" d="M91.666,184.647"/>
<path fill="#AA0707" d="M123.245,247.805"/>
<path fill="#AA0707" d="M91.666,184.647"/>
<path fill="#AA0707" d="M123.245,247.805"/>
<g>
	<rect x="170.878" y="139.471" fill="#686868" width="150.395" height="15.27"/>
	<path fill="#686868" d="M393.33,338.717v-218.95L289.693,2.75H103.006v165.955H29.315c-12.502,0-22.645,10.127-22.645,22.629
		v77.938h77.921l13.398,27.188l74.714-106.432l32.458,90.58l23.203-11.321h95.299v-77.937c0-12.486-10.16-22.614-22.646-22.614
		H114.723V16.307h170.979v107.14h95.235v201.102h-57.272v-20.537H227.8l-21.866,9.057l-40.022-70.184l-67.92,90.58l-13.964-29.438
		H6.67v70.576c0,12.502,10.127,22.646,22.645,22.646h271.703c12.485,0,22.646-10.145,22.646-22.646l0,0v-35.869h69.666
		L393.33,338.717L393.33,338.717z M293.658,115.678V18.555l83.943,97.123H293.658L293.658,115.678z"/>
</g>
</svg>
